<?xml version="1.0" encoding="utf-8"?>
<!-- Generator: Adobe Illustrator 24.0.1, SVG Export Plug-In . SVG Version: 6.00 Build 0)  -->
<svg version="1.1" id="logo" xmlns="http://www.w3.org/2000/svg" xmlns:xlink="http://www.w3.org/1999/xlink" x="0px" y="0px"
	 viewBox="0 0 800 800" style="enable-background:new 0 0 800 800;" xml:space="preserve">
<style type="text/css">
	.st0{fill:#E21E26;}
</style>
<g>
	<g>
		<path class="st0" d="M-0.06,0H800v800.06H-0.06V0z M763.2,763.26V36.8H36.74v726.47H763.2z M198.98,307.53H165.5V409.1h-29.76
			V307.53h-33.48v-28.65h96.73V307.53z M294.94,362.53c0-27.68,20.99-49.05,49.23-49.05c18.02,0,34,9.47,41.99,23.78l-24.34,14.12
			c-3.16-6.5-9.85-10.4-18.02-10.4c-12.08,0-20.99,8.73-20.99,21.55c0,12.82,8.92,21.55,20.99,21.55c8.18,0,15.05-3.9,18.02-10.41
			l24.34,13.94c-7.99,14.49-23.78,23.97-41.99,23.97C315.94,411.58,294.94,390.21,294.94,362.53z M371.15,136.87
			c-19.33,0-36.43,10.21-36.43,30.46c0,32.16,45.71,24.45,45.71,36.97c0,3.72-3.33,6.26-10.02,6.26c-8.36,0-14.68-6.07-17.76-10.35
			l-22.19,12.65c7.8,14.98,21.36,22.1,39.96,22.1c20.06,0,38.63-9.1,38.63-30.46c0-34.38-45.71-25.33-45.71-37.91
			c0-4.94,12.58-10.23,22.61,1.71l21.43-11.56C399.57,143.56,386.2,136.87,371.15,136.87z M511.86,175.33v57.19h-27.87v-53.11
			c0-11.52-7.25-16.91-16.17-16.91c-10.22,0-17.28,5.94-17.28,19.13v50.88h-27.87V102.31h27.87v45.9
			c5.02-6.88,14.31-11.34,26.57-11.34C495.88,136.87,511.86,150.25,511.86,175.33z M486.51,351.9v57.19h-27.87v-53.11
			c0-11.52-7.25-16.91-16.17-16.91c-10.22,0-17.28,5.94-17.28,19.13v50.88h-27.87V278.88h27.87v45.9
			c5.02-6.88,14.31-11.34,26.57-11.34C470.54,313.44,486.51,326.82,486.51,351.9z M319.12,138.71v93.81h-27.9v-8.75
			c-6.14,7.07-15.25,11.35-27.72,11.35c-24.37,0-44.46-21.39-44.46-49.11c0-27.72,20.09-49.11,44.46-49.11
			c12.46,0,21.58,4.28,27.72,11.35v-9.54H319.12z M291.21,186.02c0-13.95-9.3-22.69-22.14-22.69c-12.84,0-22.14,8.74-22.14,22.69
			c0,13.95,9.3,22.69,22.14,22.69C281.91,208.71,291.21,199.97,291.21,186.02z M204.56,102.31v130.22h-22.22l-50.33-70.84v70.84
			h-29.76V102.31h22.32l50.23,70.54v-70.54H204.56z M284.17,362.52c0,3.35-0.28,6.58-0.83,9.65h-66.73
			c2.79,9.93,11.11,16.62,22.79,16.62c8.66,0,14.11-4.76,16.35-7.23l22.31,12.81c-9.07,11.36-22.3,17.22-39.04,17.22
			c-31.77,0-51.47-21.36-51.47-49.06c0-27.68,20.07-49.04,49.43-49.04C264.12,313.48,284.17,334.47,284.17,362.52z M216.86,351.87
			h39.34c-3.21-10.02-11.31-13.67-19.41-13.67C226.58,338.19,219.66,343.03,216.86,351.87z M506.9,409.1h32.45v-32.45H506.9V409.1z"
			/>
	</g>
</g>
</svg>
